<svg width="221" height="203" viewBox="0 0 221 203" fill="none" xmlns="http://www.w3.org/2000/svg">
<path d="M42.803 0.086825C43.444 0.0852994 44.087 0.0837804 44.743 0.0822077C46.888 0.0779533 49.034 0.0785044 51.179 0.0790556C52.715 0.077046 54.258 0.0747541 55.794 0.0722002C59.972 0.0662588 64.137 0.0646727 68.309 0.0642694C71.798 0.0636309 75.261 0.0611576 78.771 0.0587784C86.518 0.0535225 94.265 0.0515869 102.079 0.0520641C102.774 0.0521043 102.774 0.0521044 103.489 0.0521454C103.955 0.0521729 104.423 0.0522004 104.899 0.0522288C112.448 0.0525023 119.997 0.0460656 127.545 0.0365689C135.292 0.0268907 143.04 0.0222532 150.853 0.0228581C155.21 0.0230295 159.593 0.0211106 163.897 0.0139864C167.989 0.00748718 172.108 0.00741997 176.147 0.0123196C177.65 0.0130253 179.153 0.0114324 180.657 0.00737292C182.709 0.00219104 184.762 0.00530286 186.808 0.0104847C187.403 0.00703015 188 0.00356212 188.609 0C193.827 0.0291691 197.614 1.14929 202.183 3.87129C203.229 4.48491 203.229 4.48491 204.289 5.10795C204.809 5.47558 205.328 5.84053 205.865 6.22363V7.56783C206.438 7.81247 206.438 7.81247 207.023 8.06115C212.764 11.341 217.022 18.8819 219.075 25.0652C220.366 30.153 220.591 35.0795 220.578 40.2547C220.583 41.4913 220.583 41.4913 220.588 42.7481C220.596 44.9929 220.597 47.231 220.596 49.4691C220.595 51.351 220.598 53.2329 220.601 55.1147C220.609 59.564 220.609 63.9864 220.605 68.4895C220.601 73.053 220.609 77.63 220.623 82.2003C220.635 86.1388 220.639 90.0638 220.637 94.0292C220.635 96.3748 220.637 98.7137 220.646 101.086C220.7 115.738 220.428 127.836 211.774 140.068C211.364 140.664 210.952 141.258 210.529 141.876C208.549 144.06 206.304 145.882 203.841 147.461H202.517V148.805C196.696 152.051 191.128 153.228 184.572 153.644C183.758 153.698 182.937 153.752 182.096 153.807C168.058 154.64 154.02 154.266 139.983 154.171C124.091 154.066 108.199 154.092 92.308 154.731C91.667 154.755 91.023 154.778 90.368 154.802C79.243 155.223 68.781 156.503 58.253 160.233C57.63 160.445 57.63 160.445 56.995 160.66C49.513 163.208 43.355 166.602 36.932 171.145C35.104 172.328 35.104 172.328 33.78 172.328C33.561 172.993 33.343 173.659 33.118 174.344C31.986 175.52 31.986 175.52 30.595 176.737C30.14 177.14 29.688 177.543 29.218 177.96C27.821 179.049 27.821 179.049 26.41 179.701C24.828 180.595 24.622 181.448 23.854 183.088C22.384 184.668 20.835 186.146 19.279 187.645C17.988 189.03 17.345 190.118 16.571 191.826C14.915 193.674 14.915 193.674 13.26 195.186H11.936C11.717 195.851 11.498 196.517 11.273 197.202C10.65 195.3 10.512 194.077 10.472 192.108C10.459 191.463 10.446 190.817 10.432 190.152C10.421 189.433 10.41 188.714 10.399 187.968C10.385 187.188 10.371 186.408 10.357 185.602C10.32 183.377 10.286 181.153 10.255 178.928C10.236 177.49 10.215 176.051 10.194 174.613C9.89304 153.308 9.873 132.002 9.865 110.697C9.864 107.948 9.862 105.192 9.86 102.43C9.841 83.8799 9.86699 65.33 10.126 46.7801C10.148 45.2006 10.166 43.6212 10.18 42.0418C10.202 39.8709 10.235 37.7 10.272 35.5291C10.276 34.8994 10.28 34.2723 10.284 33.6204C10.481 24.547 14.913 16.5491 20.548 9.62646C21.865 8.45029 23.196 7.4287 24.653 6.434C25.872 5.62748 25.872 5.62748 26.838 4.52524C28.434 2.99957 30.381 2.7509 32.467 2.23338V0.889186C35.95 0.16332 39.287 0.122994 42.862 0.129715L42.803 0.086825ZM152.058 67.9687V69.3129H150.734C148.615 74.0445 148.502 77.7142 150.097 82.6205C150.879 84.4822 151.753 85.6449 153.382 86.8211H154.706V88.1653C158.434 90.2824 161.791 92.1576 166.228 91.1763C170.836 89.617 173.842 86.8614 176.557 82.7751C177.954 78.682 177.663 73.9706 176.011 70.0052C174.038 66.6178 171.323 63.9563 167.801 62.2761C161.716 61.1806 156.147 63.1969 152.042 67.9889L152.058 67.9687ZM63.329 67.2967C60.634 71.0066 60.092 75.5635 60.681 80.0665C62.237 85.1341 65.594 87.9973 69.951 90.6857C73.421 92.0769 75.996 92.5205 79.486 91.1897C80.267 90.8429 81.042 90.4975 81.843 90.1413V88.7971C82.239 88.6169 82.638 88.4368 83.042 88.2513C86.306 86.4568 87.935 83.5466 89.127 80.0517C89.849 75.4613 89.093 71.7849 86.478 67.954C83.896 64.7212 81.499 62.8191 77.274 62.3755C71.481 62.3526 67.607 63.1081 63.303 67.2819L63.329 67.2967ZM108.621 67.1286C105.668 71.0806 105.429 74.5889 105.721 79.3608C106.515 83.7631 109.448 87.0899 112.938 89.7111C116.163 91.5594 119.268 92.1777 122.937 91.4586C126.506 90.1211 129.545 88.1451 131.611 84.8317C133.372 80.7521 134.114 76.3633 132.856 72.0618C131.147 67.8612 128.393 64.5343 124.314 62.5852C118.242 61.7115 112.991 62.4212 108.687 67.1219L108.621 67.1286ZM10.622 136.523V149.293H11.284V136.523H10.622Z" fill="#00D9EC" fill-opacity="0.686275"/>
<path d="M0 197.933H0.661987V202.638H0V197.933Z" fill="#000204"/>
</svg>
