<?xml version="1.0" encoding="utf-8"?>
<!-- Generator: Adobe Illustrator 27.5.0, SVG Export Plug-In . SVG Version: 6.00 Build 0)  -->
<svg version="1.1" xmlns="http://www.w3.org/2000/svg" xmlns:xlink="http://www.w3.org/1999/xlink" x="0px" y="0px"
	 viewBox="0 0 750 500" style="enable-background:new 0 0 750 500;" xml:space="preserve">
<g id="Background_Simple">
	<g>
		<path style="fill:#92E3A9;" d="M460.418,39.006c0,0-82.64-29.385-163.76,17.398c-81.12,46.783-122.051,139.653-157.201,214.045
			c-35.149,74.393-14.917,150.063,47.007,184.566c61.924,34.503,104.031-16.359,190.902-18.836
			c86.871-2.476,110.234,9.943,182.319-39.131c72.085-49.074,85.115-164.971,28.252-250.727
			C531.073,60.567,460.418,39.006,460.418,39.006z"/>
		<path style="opacity:0.7;fill:#FFFFFF;" d="M460.418,39.006c0,0-82.64-29.385-163.76,17.398
			c-81.12,46.783-122.051,139.653-157.201,214.045c-35.149,74.393-14.917,150.063,47.007,184.566
			c61.924,34.503,104.031-16.359,190.902-18.836c86.871-2.476,110.234,9.943,182.319-39.131
			c72.085-49.074,85.115-164.971,28.252-250.727C531.073,60.567,460.418,39.006,460.418,39.006z"/>
	</g>
</g>
<g id="Plants">
	<g>
		<path style="fill:#92E3A9;" d="M228.143,225.688c3.291-0.779,9.249-5.469,9.253-5.473c0.062-0.049-4.283-2.988-4.579-3.143
			c-3.42-1.782-11.076-3.215-14.15-0.182c-2.215,2.185-1.732,5.682,0.569,7.584C221.585,226.418,225.34,226.352,228.143,225.688z"/>
		<path style="fill:#92E3A9;" d="M243.426,241.671c2.851-1.556,7.082-7.189,7.417-7.639c3.129,2.386,6.533,4.581,10.1,6.612
			c2.038,1.164,4.128,2.272,6.236,3.357c-1.036-0.352-1.966-0.659-2.1-0.688c-3.77-0.816-11.532-0.176-13.696,3.561
			c-1.559,2.693-0.17,5.937,2.551,7.165c2.779,1.254,6.383,0.198,8.912-1.182c2.565-1.4,6.268-6.13,7.231-7.395
			c0.814,0.408,1.621,0.824,2.435,1.229c3.91,1.942,7.82,3.862,11.596,5.864c1.332,0.705,2.616,1.448,3.906,2.186
			c-0.921-0.312-1.699-0.567-1.822-0.593c-3.769-0.816-11.532-0.177-13.696,3.561c-1.559,2.693-0.17,5.938,2.552,7.165
			c2.779,1.254,6.383,0.198,8.912-1.182c2.448-1.337,5.905-5.671,7.057-7.169c1.296,0.796,2.597,1.591,3.818,2.422
			c0.821,0.586,1.652,1.092,2.443,1.726c0.797,0.611,1.586,1.216,2.367,1.815c1.462,1.21,2.979,2.448,4.375,3.664
			c0.978,0.838,1.895,1.655,2.82,2.475c-1.317-0.717-3.925-2.066-4.156-2.154c-3.602-1.378-11.371-1.922-14.077,1.445
			c-1.948,2.426-1.068,5.844,1.436,7.469c2.557,1.66,6.28,1.163,8.988,0.182c2.981-1.081,7.841-5.792,8.444-6.384
			c1.527,1.362,2.999,2.702,4.368,3.988c3.689,3.449,6.789,6.553,9.218,9.06l2.296-1.725c-2.549-2.526-5.841-5.691-9.785-9.222
			c-1.544-1.389-3.223-2.843-4.961-4.32c0.283-0.464,1.876-3.11,3.053-5.768c3.205,0.586,9.416-0.577,10.217-0.733
			c0.522,1.978,1.011,3.908,1.443,5.736c1.14,4.77,1.999,8.97,2.636,12.35l2.496-1.876c-0.682-3.154-1.551-6.9-2.65-11.094
			c-0.522-2.011-1.12-4.15-1.755-6.341c0.751-0.352,6.877-3.265,8.933-5.686c1.865-2.195,3.63-5.51,2.967-8.486
			c-0.649-2.914-3.545-4.933-6.498-3.953c-4.099,1.359-6.302,8.831-6.268,12.687c0.002,0.228,0.299,2.693,0.512,4.246
			c-0.264-0.894-0.51-1.764-0.793-2.681c-0.548-1.816-1.147-3.612-1.786-5.548c-0.34-0.923-0.685-1.856-1.034-2.799
			c-0.325-0.941-0.788-1.895-1.182-2.854c-0.959-2.203-2.038-4.389-3.175-6.567c1.589-0.484,7.208-2.281,9.394-4.177
			c2.175-1.888,4.423-4.897,4.218-7.938c-0.201-2.979-2.757-5.413-5.824-4.892c-4.258,0.723-7.567,7.775-8.118,11.592
			c-0.035,0.238-0.122,3.021-0.141,4.551c-0.693-1.304-1.379-2.609-2.123-3.906c-2.147-3.742-4.437-7.464-6.706-11.187
			c-0.695-1.14-1.374-2.284-2.059-3.427c0.567-0.165,7.293-2.158,9.741-4.282c2.176-1.887,4.423-4.896,4.219-7.938
			c-0.201-2.978-2.756-5.413-5.824-4.892c-4.258,0.723-7.567,7.774-8.118,11.591c-0.041,0.288-0.162,4.292-0.143,5.313
			c-1.506-2.518-2.983-5.04-4.339-7.587c-1.875-3.51-3.521-7.059-4.862-10.614c0.265-0.076,7.293-2.124,9.801-4.299
			c2.176-1.887,4.424-4.896,4.219-7.939c-0.2-2.978-2.756-5.413-5.824-4.892c-4.258,0.723-7.567,7.774-8.118,11.591
			c-0.043,0.3-0.171,4.609-0.138,5.392c-0.079-0.212-0.184-0.422-0.261-0.634c-1.382-3.814-2.243-7.682-2.871-11.342
			c-0.369-2.127-0.603-4.18-0.786-6.183c1.348-0.247,7.497-1.445,9.969-3.153c2.37-1.637,4.934-4.381,5.065-7.427
			c0.128-2.983-2.146-5.683-5.251-5.502c-4.312,0.251-8.375,6.896-9.342,10.629c-0.053,0.203-0.359,2.326-0.56,3.876
			c-0.068-0.905-0.156-1.838-0.205-2.707c-0.19-3.26-0.163-6.257-0.118-8.912c0.038-1.509,0.102-2.874,0.175-4.149
			c1.197-0.933,5.97-4.752,7.353-7.36c1.349-2.545,2.36-6.162,1.072-8.925c-1.261-2.706-4.523-4.055-7.196-2.463
			c-3.71,2.21-4.255,9.979-3.393,13.738c0.075,0.325,1.823,5.271,1.887,5.223c0,0,0.059-0.045,0.073-0.056
			c-0.096,1.226-0.184,2.542-0.251,3.98c-0.103,2.659-0.196,5.664-0.076,8.941c0.111,3.275,0.325,6.831,0.887,10.555
			c0.559,3.734,1.337,7.634,2.659,11.548c0.015,0.044,0.036,0.088,0.051,0.133c-0.742-1.024-2.913-3.821-3.104-4.016
			c-2.694-2.759-9.521-6.509-13.388-4.586c-2.785,1.387-3.417,4.859-1.825,7.384c1.627,2.579,5.215,3.687,8.085,3.93
			c3.237,0.274,9.872-2.09,10.4-2.28c1.293,3.716,2.922,7.424,4.777,11.086c1.058,2.095,2.189,4.172,3.349,6.24
			c-0.67-0.865-1.276-1.634-1.372-1.733c-2.694-2.759-9.521-6.508-13.388-4.585c-2.786,1.386-3.417,4.859-1.825,7.384
			c1.626,2.579,5.215,3.687,8.085,3.93c2.912,0.247,8.61-1.655,10.111-2.178c0.454,0.789,0.897,1.581,1.354,2.368
			c2.189,3.776,4.391,7.535,6.437,11.288c0.722,1.322,1.384,2.651,2.051,3.978c-0.596-0.768-1.105-1.409-1.192-1.499
			c-2.693-2.76-9.521-6.509-13.387-4.585c-2.786,1.386-3.418,4.858-1.825,7.384c1.626,2.578,5.215,3.687,8.085,3.93
			c2.779,0.236,8.054-1.472,9.841-2.086c0.642,1.379,1.288,2.76,1.848,4.126c0.361,0.941,0.775,1.822,1.085,2.788
			c0.328,0.949,0.652,1.889,0.973,2.82c0.552,1.815,1.134,3.685,1.628,5.47c0.353,1.238,0.667,2.425,0.987,3.62
			c-0.703-1.324-2.134-3.889-2.277-4.089c-1.492-2.084-4.721-4.866-7.927-6.119c-0.219-0.309-0.462-0.598-0.736-0.861
			c-2.149-2.072-5.678-2.159-7.601,0.288c-2.669,3.395-0.385,10.842,1.771,14.039c0.127,0.189,1.735,2.081,2.77,3.259
			c-0.713-0.6-1.398-1.19-2.141-1.798c-1.459-1.213-2.95-2.38-4.55-3.642c-0.794-0.583-1.596-1.17-2.406-1.764
			c-0.791-0.607-1.703-1.146-2.56-1.729c-2.016-1.308-4.122-2.536-6.271-3.726c1.059-1.28,4.754-5.879,5.531-8.666
			c0.773-2.774,0.988-6.524-0.861-8.948c-1.81-2.374-5.285-2.994-7.556-0.867c-3.152,2.952-2.023,10.659-0.376,14.146
			c0.103,0.218,1.565,2.587,2.393,3.873c-1.298-0.706-2.589-1.416-3.925-2.087c-3.856-1.937-7.819-3.777-11.765-5.631
			c-1.209-0.567-2.406-1.147-3.608-1.722c0.382-0.451,4.892-5.823,5.762-8.945c0.774-2.775,0.988-6.524-0.861-8.948
			c-1.81-2.374-5.285-2.994-7.556-0.867c-3.153,2.952-2.022,10.659-0.377,14.146c0.124,0.263,2.233,3.67,2.812,4.51
			c-2.644-1.269-5.269-2.558-7.804-3.933c-3.501-1.894-6.831-3.945-9.91-6.171c0.178-0.21,4.911-5.795,5.802-8.992
			c0.774-2.774,0.988-6.524-0.861-8.948c-1.81-2.374-5.285-2.994-7.556-0.867c-3.153,2.952-2.023,10.659-0.377,14.146
			c0.129,0.274,2.4,3.938,2.859,4.573c-0.183-0.133-0.387-0.25-0.568-0.384c-3.257-2.419-6.108-5.17-8.652-7.877
			c-1.48-1.57-2.809-3.154-4.066-4.723c0.988-0.95,5.456-5.341,6.576-8.129c1.073-2.673,1.699-6.376,0.127-8.989
			c-1.539-2.558-4.925-3.557-7.416-1.692c-3.457,2.588-3.181,10.372-1.928,14.019c0.068,0.199,0.984,2.138,1.671,3.542
			c-0.556-0.717-1.144-1.447-1.663-2.145c-1.957-2.614-3.588-5.129-5.015-7.368c-0.801-1.28-1.5-2.453-2.142-3.557
			c0.483-1.438,2.358-7.258,2.073-10.195c-0.279-2.867-1.431-6.441-4.03-8.036c-2.544-1.561-6.01-0.887-7.361,1.915
			c-1.876,3.89,1.956,10.671,4.749,13.331c0.242,0.23,4.429,3.391,4.455,3.316c0,0,0.024-0.07,0.029-0.087
			c0.597,1.075,1.249,2.221,1.987,3.458c1.38,2.275,2.961,4.832,4.869,7.499c1.9,2.67,4.039,5.518,6.563,8.314
			c2.526,2.806,5.327,5.63,8.588,8.165c0.037,0.028,0.079,0.054,0.116,0.082c-1.184-0.446-4.537-1.579-4.805-1.637
			c-3.769-0.816-11.532-0.177-13.696,3.561c-1.559,2.693-0.17,5.938,2.552,7.166C237.293,244.107,240.897,243.051,243.426,241.671z"
			/>
		<path style="fill:#92E3A9;" d="M290.444,180.961c0.078-0.007-1.924-4.856-2.086-5.147c-1.869-3.373-7.464-8.792-11.701-7.958
			c-3.053,0.6-4.579,3.784-3.71,6.639c0.888,2.917,4.056,4.933,6.76,5.926C282.882,181.587,290.439,180.962,290.444,180.961z"/>
	</g>
</g>
<g id="Device">
	<g>
		<g>
			<path style="fill:#FFFFFF;" d="M512.739,71.263H441.85l-2.948,5.468c-3.138,5.82-9.331,9.466-16.081,9.466
				c-6.75,0-12.944-3.646-16.081-9.466l-2.948-5.468h-70.889c-7.564,0-13.697,5.972-13.697,13.338v365.055
				c0,7.367,6.132,13.339,13.697,13.339h179.836c7.564,0,13.697-5.972,13.697-13.339V84.602
				C526.436,77.235,520.304,71.263,512.739,71.263z"/>
			<g>
				
					<rect x="497.886" y="76.51" style="fill:none;stroke:#263238;stroke-width:0.9107;stroke-linecap:round;stroke-linejoin:round;stroke-miterlimit:10;" width="14.294" height="7.838"/>
				
					<rect x="497.886" y="76.51" style="fill:#263238;stroke:#263238;stroke-width:0.8042;stroke-linecap:round;stroke-linejoin:round;stroke-miterlimit:10;" width="11.147" height="7.838"/>
				
					<rect x="512.15" y="78.703" style="fill:#263238;stroke:#263238;stroke-width:0.8042;stroke-linecap:round;stroke-linejoin:round;stroke-miterlimit:10;" width="2.014" height="3.452"/>
			</g>
			<g>
				
					<rect x="331.011" y="78.942" style="fill:#263238;stroke:#263238;stroke-width:0.9795;stroke-linecap:round;stroke-linejoin:round;stroke-miterlimit:10;" width="2.62" height="4.493"/>
				
					<rect x="335.129" y="77.365" style="fill:#263238;stroke:#263238;stroke-width:0.9795;stroke-linecap:round;stroke-linejoin:round;stroke-miterlimit:10;" width="2.621" height="6.07"/>
				
					<rect x="339.247" y="75.501" style="fill:#263238;stroke:#263238;stroke-width:0.9795;stroke-linecap:round;stroke-linejoin:round;stroke-miterlimit:10;" width="2.621" height="7.934"/>
			</g>
			
				<line style="fill:none;stroke:#263238;stroke-width:1.1092;stroke-linecap:round;stroke-linejoin:round;stroke-miterlimit:10;" x1="325.548" y1="87.028" x2="520.058" y2="87.028"/>
		</g>
		
			<path style="fill:#263238;stroke:#263238;stroke-width:1.1092;stroke-linecap:round;stroke-linejoin:round;stroke-miterlimit:10;" d="
			M536.529,196.729c0.8,0,1.448-0.649,1.448-1.448v-38.925c0-0.8-0.648-1.448-1.448-1.448h-3.779V80.563
			c0-10.321-8.367-18.688-18.688-18.688H331.58c-10.321,0-18.688,8.367-18.688,18.688v383.652c0,10.321,8.367,18.688,18.688,18.688
			h182.482c10.321,0,18.688-8.367,18.688-18.688V230.187h3.779c0.8,0,1.448-0.648,1.448-1.448v-17.317
			c0-0.8-0.648-1.448-1.448-1.448h-3.779v-13.244H536.529z M526.436,449.657c0,7.367-6.132,13.339-13.697,13.339H332.903
			c-7.564,0-13.697-5.972-13.697-13.339V84.602c0-7.367,6.132-13.338,13.697-13.338h70.889l2.948,5.468
			c3.138,5.82,9.331,9.466,16.081,9.466c6.75,0,12.944-3.646,16.081-9.466l2.948-5.468h70.889c7.565,0,13.697,5.972,13.697,13.338
			V449.657z"/>
		
			<path style="fill:#FFFFFF;stroke:#263238;stroke-width:1.1092;stroke-linecap:round;stroke-linejoin:round;stroke-miterlimit:10;" d="
			M427.701,73.354c0-2.695-2.184-4.879-4.879-4.879c-2.695,0-4.879,2.184-4.879,4.879s2.184,4.879,4.879,4.879
			C425.516,78.234,427.701,76.049,427.701,73.354z"/>
	</g>
</g>
<g id="Text_Balloons">
	<g>
		<g>
			<path style="fill:#A3A3A3;" d="M448.464,98.09H338.408c-4.633,0-8.388,3.756-8.388,8.388v20.326v5.846v18.899l9.923-10.51
				h108.522c4.633,0,8.388-3.756,8.388-8.388v-26.172C456.852,101.845,453.096,98.09,448.464,98.09z"/>
			<g>
				<path style="fill:#FFFFFF;" d="M364.277,116.54c0-6.514-5.281-11.795-11.795-11.795s-11.795,5.281-11.795,11.795
					c0,6.514,5.281,11.795,11.795,11.795S364.277,123.054,364.277,116.54z"/>
				<g>
					
						<path style="fill:#FFFFFF;stroke:#263238;stroke-width:1.1092;stroke-linecap:round;stroke-linejoin:round;stroke-miterlimit:10;" d="
						M358.433,116.804c0,0,1.238-1.651,1.513,0c0.275,1.651-2.113,3.711-2.113,3.711L358.433,116.804z"/>
					
						<path style="fill:#FFFFFF;stroke:#263238;stroke-width:1.1092;stroke-linecap:round;stroke-linejoin:round;stroke-miterlimit:10;" d="
						M346.575,116.804c0,0-1.238-1.651-1.513,0c-0.275,1.651,2.113,3.711,2.113,3.711L346.575,116.804z"/>
					
						<path style="fill:#FFFFFF;stroke:#263238;stroke-width:1.1092;stroke-linecap:round;stroke-linejoin:round;stroke-miterlimit:10;" d="
						M352.919,108.667c0,0-4.668-0.359-5.745,2.753c-1.077,3.112-0.359,8.138,0,9.095c0.359,0.958,3.351,5.625,4.189,5.984
						s2.872,0.239,3.231-0.239c0.359-0.479,3.351-4.907,3.59-6.463c0.163-1.058-0.006-4.662-0.131-6.86
						c-0.093-1.642-1.11-3.092-2.631-3.716C354.748,108.945,353.921,108.731,352.919,108.667z"/>
					
						<path style="fill:#263238;stroke:#263238;stroke-width:1.1092;stroke-linecap:round;stroke-linejoin:round;stroke-miterlimit:10;" d="
						M358.053,112.937c-0.093-1.642-1.11-3.092-2.631-3.716c-0.674-0.276-1.501-0.49-2.503-0.554c0,0-4.668-0.359-5.745,2.753
						c-0.55,1.589-0.631,3.675-0.532,5.465c0.236,0.274,1.012,1.109,0.895,0.056c-0.138-1.238-0.275-4.952,0.688-5.778
						c0.963-0.825,1.1-1.513,2.476-0.412c1.376,1.1,1.238,2.063,2.614,1.376c1.376-0.688,1.651-2.201,2.889-1.651
						c1.238,0.55,0.826,3.164,0.826,4.402s0,3.577,0.825,2.476c0.123-0.164,0.246-0.428,0.366-0.746
						C358.182,115.35,358.113,113.985,358.053,112.937z"/>
					
						<path style="fill:#263238;stroke:#263238;stroke-width:1.1092;stroke-linecap:round;stroke-linejoin:round;stroke-miterlimit:10;" d="
						M350.93,125.748c0,0,1.476-2.952,2.415-1.879c0.939,1.074,1.249,2.391,1.249,2.391S352.541,127.627,350.93,125.748z"/>
					
						<path style="fill:#263238;stroke:#263238;stroke-width:1.1092;stroke-linecap:round;stroke-linejoin:round;stroke-miterlimit:10;" d="
						M351.601,108.437c0,0-0.403-0.939-1.074-1.342c-0.671-0.403-0.671-0.403-0.671-0.403s1.61-0.671,2.147-0.134
						c0.537,0.537,0.939,1.074,0.939,1.074s0.268-1.879,0.939-1.208c0.671,0.671,1.208,1.074,1.208,1.074s-1.879,0.537-1.879,1.879"
						/>
				</g>
			</g>
			<g>
				
					<line style="fill:none;stroke:#FFFFFF;stroke-width:2.2184;stroke-linecap:round;stroke-linejoin:round;stroke-miterlimit:10;" x1="371.232" y1="108.106" x2="395.674" y2="108.106"/>
				
					<line style="fill:none;stroke:#FFFFFF;stroke-width:1.1092;stroke-linecap:round;stroke-linejoin:round;stroke-miterlimit:10;" x1="371.232" y1="116.624" x2="446.041" y2="116.624"/>
				
					<line style="fill:none;stroke:#FFFFFF;stroke-width:1.1092;stroke-linecap:round;stroke-linejoin:round;stroke-miterlimit:10;" x1="371.232" y1="123.661" x2="446.041" y2="123.661"/>
				
					<line style="fill:none;stroke:#FFFFFF;stroke-width:1.1092;stroke-linecap:round;stroke-linejoin:round;stroke-miterlimit:10;" x1="371.232" y1="131.438" x2="446.041" y2="131.438"/>
			</g>
		</g>
		<g>
			<g>
				<path style="fill:#92E3A9;" d="M506.84,158.977H396.784c-4.633,0-8.388,3.756-8.388,8.389v26.172
					c0,4.633,3.756,8.389,8.388,8.389h108.521l9.923,10.51v-18.899v-5.846v-20.326C515.228,162.733,511.473,158.977,506.84,158.977z
					"/>
				<g>
					
						<line style="fill:none;stroke:#263238;stroke-width:2.2184;stroke-linecap:round;stroke-linejoin:round;stroke-miterlimit:10;" x1="429.608" y1="168.993" x2="454.05" y2="168.993"/>
					
						<line style="fill:none;stroke:#263238;stroke-width:1.1092;stroke-linecap:round;stroke-linejoin:round;stroke-miterlimit:10;" x1="429.608" y1="177.512" x2="504.417" y2="177.512"/>
					
						<line style="fill:none;stroke:#263238;stroke-width:1.1092;stroke-linecap:round;stroke-linejoin:round;stroke-miterlimit:10;" x1="429.608" y1="184.548" x2="504.417" y2="184.548"/>
					
						<line style="fill:none;stroke:#263238;stroke-width:1.1092;stroke-linecap:round;stroke-linejoin:round;stroke-miterlimit:10;" x1="429.608" y1="192.325" x2="504.417" y2="192.325"/>
				</g>
			</g>
			<g>
				<path style="fill:#FFFFFF;" d="M423.145,179.893c0-6.514-5.281-11.795-11.794-11.795c-6.514,0-11.795,5.281-11.795,11.795
					c0,6.514,5.281,11.795,11.795,11.795C417.865,191.688,423.145,186.407,423.145,179.893z"/>
				<g>
					
						<path style="fill:#263238;stroke:#263238;stroke-width:1.1092;stroke-linecap:round;stroke-linejoin:round;stroke-miterlimit:10;" d="
						M409.868,170.934c0,0-3.948-0.45-5.573,3.816c-1.625,4.266-2.305,9.087-2.305,11.525c0,2.438,4.83,4.365,7.471,4.568
						c2.641,0.203,8.582,0.101,10.614-3.149c2.031-3.25-1.269-9.852-2.082-13.915C417.181,169.715,412.712,170.731,409.868,170.934z
						"/>
					
						<path style="fill:#FFFFFF;stroke:#263238;stroke-width:1.1092;stroke-linecap:round;stroke-linejoin:round;stroke-miterlimit:10;" d="
						M417.301,179.083c0,0,1.238-1.651,1.513,0c0.275,1.651-2.113,3.711-2.113,3.711L417.301,179.083z"/>
					
						<path style="fill:#FFFFFF;stroke:#263238;stroke-width:1.1092;stroke-linecap:round;stroke-linejoin:round;stroke-miterlimit:10;" d="
						M405.443,179.083c0,0-1.238-1.651-1.513,0c-0.275,1.651,2.113,3.711,2.113,3.711L405.443,179.083z"/>
					
						<path style="fill:#FFFFFF;stroke:#263238;stroke-width:1.1092;stroke-linecap:round;stroke-linejoin:round;stroke-miterlimit:10;" d="
						M411.787,170.947c0,0-4.668-0.359-5.745,2.753c-1.077,3.112-0.359,8.138,0,9.096c0.359,0.957,3.351,5.625,4.189,5.984
						c0.838,0.359,2.872,0.239,3.231-0.24c0.359-0.479,3.351-4.907,3.591-6.463c0.163-1.058-0.006-4.662-0.131-6.86
						c-0.093-1.642-1.11-3.092-2.631-3.716C413.616,171.224,412.789,171.011,411.787,170.947z"/>
				</g>
				
					<path style="fill:#263238;stroke:#263238;stroke-width:1.1092;stroke-linecap:round;stroke-linejoin:round;stroke-miterlimit:10;" d="
					M408.243,172.153c0,0,7.544,6.931,9.058,6.931c1.513,0,1.709-5.102,0.084-7.54C415.759,169.106,408.04,167.684,408.243,172.153z
					"/>
			</g>
		</g>
		<g>
			<path style="fill:#A3A3A3;" d="M448.464,221.675H338.408c-4.633,0-8.388,3.756-8.388,8.388v20.326v5.846v18.898l9.923-10.51
				h108.522c4.633,0,8.388-3.756,8.388-8.388v-26.172C456.852,225.431,453.096,221.675,448.464,221.675z"/>
			<g>
				
					<ellipse transform="matrix(0.3855 -0.9227 0.9227 0.3855 -4.9523 472.8148)" style="fill:#FFFFFF;" cx="352.483" cy="240.125" rx="11.795" ry="11.795"/>
				<g>
					
						<path style="fill:#FFFFFF;stroke:#263238;stroke-width:1.1092;stroke-linecap:round;stroke-linejoin:round;stroke-miterlimit:10;" d="
						M358.433,240.389c0,0,1.238-1.651,1.513,0c0.275,1.651-2.113,3.711-2.113,3.711L358.433,240.389z"/>
					
						<path style="fill:#FFFFFF;stroke:#263238;stroke-width:1.1092;stroke-linecap:round;stroke-linejoin:round;stroke-miterlimit:10;" d="
						M346.575,240.389c0,0-1.238-1.651-1.513,0c-0.275,1.651,2.113,3.711,2.113,3.711L346.575,240.389z"/>
					
						<path style="fill:#FFFFFF;stroke:#263238;stroke-width:1.1092;stroke-linecap:round;stroke-linejoin:round;stroke-miterlimit:10;" d="
						M352.919,232.252c0,0-4.668-0.359-5.745,2.753c-1.077,3.112-0.359,8.138,0,9.096c0.359,0.957,3.351,5.625,4.189,5.984
						c0.838,0.359,2.872,0.24,3.231-0.239c0.359-0.479,3.351-4.907,3.59-6.463c0.163-1.058-0.006-4.662-0.131-6.86
						c-0.093-1.642-1.11-3.092-2.631-3.716C354.748,232.529,353.921,232.317,352.919,232.252z"/>
					
						<path style="fill:#263238;stroke:#263238;stroke-width:1.1092;stroke-linecap:round;stroke-linejoin:round;stroke-miterlimit:10;" d="
						M358.053,236.522c-0.093-1.642-1.11-3.092-2.631-3.716c-0.674-0.277-1.501-0.49-2.503-0.554c0,0-4.668-0.359-5.745,2.753
						c-0.55,1.589-0.631,3.675-0.532,5.465c0.236,0.274,1.012,1.11,0.895,0.057c-0.138-1.238-0.275-4.952,0.688-5.778
						c0.963-0.825,1.1-1.513,2.476-0.413c1.376,1.1,1.238,2.063,2.614,1.376c1.376-0.688,1.651-2.201,2.889-1.651
						c1.238,0.55,0.826,3.164,0.826,4.402c0,1.238,0,3.577,0.825,2.476c0.123-0.164,0.246-0.428,0.366-0.746
						C358.182,238.935,358.113,237.57,358.053,236.522z"/>
					
						<path style="fill:#263238;stroke:#263238;stroke-width:1.1092;stroke-linecap:round;stroke-linejoin:round;stroke-miterlimit:10;" d="
						M350.93,249.333c0,0,1.476-2.952,2.415-1.879c0.939,1.074,1.249,2.391,1.249,2.391S352.541,251.212,350.93,249.333z"/>
					
						<path style="fill:#263238;stroke:#263238;stroke-width:1.1092;stroke-linecap:round;stroke-linejoin:round;stroke-miterlimit:10;" d="
						M351.601,232.022c0,0-0.403-0.939-1.074-1.342c-0.671-0.402-0.671-0.402-0.671-0.402s1.61-0.671,2.147-0.134
						c0.537,0.537,0.939,1.074,0.939,1.074s0.268-1.879,0.939-1.208c0.671,0.671,1.208,1.074,1.208,1.074s-1.879,0.537-1.879,1.879"
						/>
				</g>
			</g>
			<g>
				
					<line style="fill:none;stroke:#FFFFFF;stroke-width:2.2184;stroke-linecap:round;stroke-linejoin:round;stroke-miterlimit:10;" x1="371.232" y1="231.691" x2="395.674" y2="231.691"/>
				
					<line style="fill:none;stroke:#FFFFFF;stroke-width:1.1092;stroke-linecap:round;stroke-linejoin:round;stroke-miterlimit:10;" x1="371.232" y1="240.21" x2="446.041" y2="240.21"/>
				
					<line style="fill:none;stroke:#FFFFFF;stroke-width:1.1092;stroke-linecap:round;stroke-linejoin:round;stroke-miterlimit:10;" x1="371.232" y1="247.246" x2="446.041" y2="247.246"/>
				
					<line style="fill:none;stroke:#FFFFFF;stroke-width:1.1092;stroke-linecap:round;stroke-linejoin:round;stroke-miterlimit:10;" x1="371.232" y1="255.023" x2="446.041" y2="255.023"/>
			</g>
		</g>
		<g>
			<path style="fill:#A3A3A3;" d="M448.464,283.207H338.408c-4.633,0-8.388,3.756-8.388,8.388v20.326v5.846v18.899l9.923-10.51
				h108.522c4.633,0,8.388-3.756,8.388-8.388v-26.172C456.852,286.962,453.096,283.207,448.464,283.207z"/>
			<g>
				
					<ellipse transform="matrix(0.3855 -0.9227 0.9227 0.3855 -61.7294 510.6292)" style="fill:#FFFFFF;" cx="352.483" cy="301.657" rx="11.795" ry="11.795"/>
				<g>
					
						<path style="fill:#FFFFFF;stroke:#263238;stroke-width:1.1092;stroke-linecap:round;stroke-linejoin:round;stroke-miterlimit:10;" d="
						M358.433,301.921c0,0,1.238-1.651,1.513,0c0.275,1.651-2.113,3.711-2.113,3.711L358.433,301.921z"/>
					
						<path style="fill:#FFFFFF;stroke:#263238;stroke-width:1.1092;stroke-linecap:round;stroke-linejoin:round;stroke-miterlimit:10;" d="
						M346.575,301.921c0,0-1.238-1.651-1.513,0c-0.275,1.651,2.113,3.711,2.113,3.711L346.575,301.921z"/>
					
						<path style="fill:#FFFFFF;stroke:#263238;stroke-width:1.1092;stroke-linecap:round;stroke-linejoin:round;stroke-miterlimit:10;" d="
						M352.919,293.784c0,0-4.668-0.359-5.745,2.753c-1.077,3.112-0.359,8.138,0,9.096c0.359,0.957,3.351,5.625,4.189,5.984
						c0.838,0.359,2.872,0.239,3.231-0.239c0.359-0.479,3.351-4.907,3.59-6.463c0.163-1.058-0.006-4.662-0.131-6.86
						c-0.093-1.642-1.11-3.092-2.631-3.716C354.748,294.061,353.921,293.849,352.919,293.784z"/>
					
						<path style="fill:#263238;stroke:#263238;stroke-width:1.1092;stroke-linecap:round;stroke-linejoin:round;stroke-miterlimit:10;" d="
						M358.053,298.054c-0.093-1.642-1.11-3.092-2.631-3.716c-0.674-0.277-1.501-0.49-2.503-0.554c0,0-4.668-0.359-5.745,2.753
						c-0.55,1.589-0.631,3.675-0.532,5.466c0.236,0.274,1.012,1.109,0.895,0.057c-0.138-1.238-0.275-4.952,0.688-5.778
						c0.963-0.825,1.1-1.513,2.476-0.413c1.376,1.1,1.238,2.063,2.614,1.375c1.376-0.688,1.651-2.201,2.889-1.651
						c1.238,0.55,0.826,3.164,0.826,4.402s0,3.577,0.825,2.476c0.123-0.164,0.246-0.428,0.366-0.746
						C358.182,300.467,358.113,299.102,358.053,298.054z"/>
					
						<path style="fill:#263238;stroke:#263238;stroke-width:1.1092;stroke-linecap:round;stroke-linejoin:round;stroke-miterlimit:10;" d="
						M350.93,310.865c0,0,1.476-2.952,2.415-1.879c0.939,1.074,1.249,2.391,1.249,2.391S352.541,312.743,350.93,310.865z"/>
					
						<path style="fill:#263238;stroke:#263238;stroke-width:1.1092;stroke-linecap:round;stroke-linejoin:round;stroke-miterlimit:10;" d="
						M351.601,293.554c0,0-0.403-0.939-1.074-1.342c-0.671-0.403-0.671-0.403-0.671-0.403s1.61-0.671,2.147-0.134
						c0.537,0.537,0.939,1.074,0.939,1.074s0.268-1.879,0.939-1.208c0.671,0.671,1.208,1.074,1.208,1.074s-1.879,0.537-1.879,1.879"
						/>
				</g>
			</g>
			<g>
				
					<line style="fill:none;stroke:#FFFFFF;stroke-width:2.2184;stroke-linecap:round;stroke-linejoin:round;stroke-miterlimit:10;" x1="371.232" y1="293.223" x2="395.674" y2="293.223"/>
				
					<line style="fill:none;stroke:#FFFFFF;stroke-width:1.1092;stroke-linecap:round;stroke-linejoin:round;stroke-miterlimit:10;" x1="371.232" y1="301.741" x2="446.041" y2="301.741"/>
				
					<line style="fill:none;stroke:#FFFFFF;stroke-width:1.1092;stroke-linecap:round;stroke-linejoin:round;stroke-miterlimit:10;" x1="371.232" y1="308.778" x2="446.041" y2="308.778"/>
				
					<line style="fill:none;stroke:#FFFFFF;stroke-width:1.1092;stroke-linecap:round;stroke-linejoin:round;stroke-miterlimit:10;" x1="371.232" y1="316.555" x2="446.041" y2="316.555"/>
			</g>
		</g>
		<g>
			<path style="fill:#A3A3A3;" d="M448.464,399.163H338.408c-4.633,0-8.388,3.756-8.388,8.388v20.326v5.846v18.899l9.923-10.51
				h108.522c4.633,0,8.388-3.756,8.388-8.388v-26.172C456.852,402.919,453.096,399.163,448.464,399.163z"/>
			<g>
				
					<ellipse transform="matrix(0.987 -0.1608 0.1608 0.987 -62.5556 62.1022)" style="fill:#FFFFFF;" cx="352.483" cy="417.613" rx="11.795" ry="11.795"/>
				<g>
					
						<path style="fill:#FFFFFF;stroke:#263238;stroke-width:1.1092;stroke-linecap:round;stroke-linejoin:round;stroke-miterlimit:10;" d="
						M358.433,417.877c0,0,1.238-1.651,1.513,0c0.275,1.651-2.113,3.711-2.113,3.711L358.433,417.877z"/>
					
						<path style="fill:#FFFFFF;stroke:#263238;stroke-width:1.1092;stroke-linecap:round;stroke-linejoin:round;stroke-miterlimit:10;" d="
						M346.575,417.877c0,0-1.238-1.651-1.513,0c-0.275,1.651,2.113,3.711,2.113,3.711L346.575,417.877z"/>
					
						<path style="fill:#FFFFFF;stroke:#263238;stroke-width:1.1092;stroke-linecap:round;stroke-linejoin:round;stroke-miterlimit:10;" d="
						M352.919,409.74c0,0-4.668-0.359-5.745,2.753c-1.077,3.112-0.359,8.138,0,9.095c0.359,0.957,3.351,5.625,4.189,5.984
						c0.838,0.359,2.872,0.24,3.231-0.239c0.359-0.479,3.351-4.907,3.59-6.463c0.163-1.058-0.006-4.662-0.131-6.86
						c-0.093-1.642-1.11-3.092-2.631-3.716C354.748,410.018,353.921,409.805,352.919,409.74z"/>
					
						<path style="fill:#263238;stroke:#263238;stroke-width:1.1092;stroke-linecap:round;stroke-linejoin:round;stroke-miterlimit:10;" d="
						M358.053,414.011c-0.093-1.642-1.11-3.092-2.631-3.716c-0.674-0.276-1.501-0.49-2.503-0.554c0,0-4.668-0.359-5.745,2.753
						c-0.55,1.589-0.631,3.675-0.532,5.465c0.236,0.274,1.012,1.109,0.895,0.057c-0.138-1.238-0.275-4.952,0.688-5.778
						c0.963-0.825,1.1-1.513,2.476-0.413c1.376,1.1,1.238,2.063,2.614,1.375c1.376-0.688,1.651-2.201,2.889-1.651
						c1.238,0.55,0.826,3.164,0.826,4.402c0,1.238,0,3.577,0.825,2.476c0.123-0.164,0.246-0.428,0.366-0.746
						C358.182,416.423,358.113,415.058,358.053,414.011z"/>
					
						<path style="fill:#263238;stroke:#263238;stroke-width:1.1092;stroke-linecap:round;stroke-linejoin:round;stroke-miterlimit:10;" d="
						M350.93,426.821c0,0,1.476-2.952,2.415-1.879c0.939,1.074,1.249,2.391,1.249,2.391S352.541,428.7,350.93,426.821z"/>
					
						<path style="fill:#263238;stroke:#263238;stroke-width:1.1092;stroke-linecap:round;stroke-linejoin:round;stroke-miterlimit:10;" d="
						M351.601,409.51c0,0-0.403-0.939-1.074-1.342c-0.671-0.402-0.671-0.402-0.671-0.402s1.61-0.671,2.147-0.134
						c0.537,0.537,0.939,1.074,0.939,1.074s0.268-1.879,0.939-1.208c0.671,0.671,1.208,1.074,1.208,1.074s-1.879,0.537-1.879,1.879"
						/>
				</g>
			</g>
			<g>
				
					<line style="fill:none;stroke:#FFFFFF;stroke-width:2.2184;stroke-linecap:round;stroke-linejoin:round;stroke-miterlimit:10;" x1="371.232" y1="409.18" x2="395.674" y2="409.18"/>
				
					<line style="fill:none;stroke:#FFFFFF;stroke-width:1.1092;stroke-linecap:round;stroke-linejoin:round;stroke-miterlimit:10;" x1="371.232" y1="417.698" x2="446.041" y2="417.698"/>
				
					<line style="fill:none;stroke:#FFFFFF;stroke-width:1.1092;stroke-linecap:round;stroke-linejoin:round;stroke-miterlimit:10;" x1="371.232" y1="424.734" x2="446.041" y2="424.734"/>
				
					<line style="fill:none;stroke:#FFFFFF;stroke-width:1.1092;stroke-linecap:round;stroke-linejoin:round;stroke-miterlimit:10;" x1="371.232" y1="432.511" x2="446.041" y2="432.511"/>
			</g>
		</g>
		<g>
			<g>
				<path style="fill:#92E3A9;" d="M506.84,344.604H396.784c-4.633,0-8.388,3.756-8.388,8.388v26.172
					c0,4.633,3.756,8.388,8.388,8.388h108.521l9.923,10.51v-18.899v-5.846v-20.326C515.228,348.359,511.473,344.604,506.84,344.604z
					"/>
				<g>
					
						<line style="fill:none;stroke:#263238;stroke-width:2.2184;stroke-linecap:round;stroke-linejoin:round;stroke-miterlimit:10;" x1="429.608" y1="354.62" x2="454.05" y2="354.62"/>
					
						<line style="fill:none;stroke:#263238;stroke-width:1.1092;stroke-linecap:round;stroke-linejoin:round;stroke-miterlimit:10;" x1="429.608" y1="363.138" x2="504.417" y2="363.138"/>
					
						<line style="fill:none;stroke:#263238;stroke-width:1.1092;stroke-linecap:round;stroke-linejoin:round;stroke-miterlimit:10;" x1="429.608" y1="370.175" x2="504.417" y2="370.175"/>
					
						<line style="fill:none;stroke:#263238;stroke-width:1.1092;stroke-linecap:round;stroke-linejoin:round;stroke-miterlimit:10;" x1="429.608" y1="377.952" x2="504.417" y2="377.952"/>
				</g>
			</g>
			<g>
				<path style="fill:#FFFFFF;" d="M423.145,365.52c0-6.514-5.281-11.795-11.794-11.795c-6.514,0-11.795,5.281-11.795,11.795
					c0,6.514,5.281,11.795,11.795,11.795C417.865,377.315,423.145,372.034,423.145,365.52z"/>
				<g>
					
						<path style="fill:#263238;stroke:#263238;stroke-width:1.1092;stroke-linecap:round;stroke-linejoin:round;stroke-miterlimit:10;" d="
						M409.868,356.561c0,0-3.948-0.45-5.573,3.816c-1.625,4.266-2.305,9.087-2.305,11.525c0,2.438,4.83,4.365,7.471,4.568
						c2.641,0.203,8.582,0.101,10.614-3.149c2.031-3.25-1.269-9.852-2.082-13.915C417.181,355.342,412.712,356.358,409.868,356.561z
						"/>
					
						<path style="fill:#FFFFFF;stroke:#263238;stroke-width:1.1092;stroke-linecap:round;stroke-linejoin:round;stroke-miterlimit:10;" d="
						M417.301,364.71c0,0,1.238-1.651,1.513,0c0.275,1.651-2.113,3.711-2.113,3.711L417.301,364.71z"/>
					
						<path style="fill:#FFFFFF;stroke:#263238;stroke-width:1.1092;stroke-linecap:round;stroke-linejoin:round;stroke-miterlimit:10;" d="
						M405.443,364.71c0,0-1.238-1.651-1.513,0c-0.275,1.651,2.113,3.711,2.113,3.711L405.443,364.71z"/>
					
						<path style="fill:#FFFFFF;stroke:#263238;stroke-width:1.1092;stroke-linecap:round;stroke-linejoin:round;stroke-miterlimit:10;" d="
						M411.787,356.573c0,0-4.668-0.359-5.745,2.753c-1.077,3.112-0.359,8.138,0,9.096c0.359,0.957,3.351,5.625,4.189,5.984
						c0.838,0.359,2.872,0.239,3.231-0.24c0.359-0.479,3.351-4.907,3.591-6.463c0.163-1.058-0.006-4.662-0.131-6.86
						c-0.093-1.642-1.11-3.092-2.631-3.716C413.616,356.851,412.789,356.638,411.787,356.573z"/>
				</g>
				
					<path style="fill:#263238;stroke:#263238;stroke-width:1.1092;stroke-linecap:round;stroke-linejoin:round;stroke-miterlimit:10;" d="
					M408.243,357.78c0,0,7.544,6.931,9.058,6.931c1.513,0,1.709-5.102,0.084-7.54C415.759,354.732,408.04,353.31,408.243,357.78z"/>
			</g>
		</g>
	</g>
</g>
<g id="Character_2">
	<g>
		<g>
			<g>
				<path style="fill:#FFFFFF;stroke:#263238;stroke-width:1.1092;stroke-miterlimit:10;" d="M534.976,458.7l-1.232,22.288
					c0,0,0.739,1.601,2.093,1.847c1.355,0.246,30.785,0,30.785,0s0.369-1.847-0.246-3.571c-0.616-1.724-1.724-2.832-3.202-3.202
					c-1.478-0.369-11.698-5.049-12.56-5.418c-0.862-0.37-1.354-6.28-1.354-6.28L534.976,458.7z"/>
				<path style="fill:#FFFFFF;stroke:#263238;stroke-width:1.1092;stroke-miterlimit:10;" d="M566.623,482.836
					c0,0,0.214-1.097,0.034-2.389c-6.141-0.166-26.176-0.707-32.834-0.881l-0.079,1.423c0,0,0.739,1.601,2.093,1.847
					C537.192,483.082,566.623,482.836,566.623,482.836z"/>
			</g>
			<path style="fill:#263238;stroke:#263238;stroke-width:1.1092;stroke-miterlimit:10;" d="M541.111,345.724
				c0,0,2.525,54.712,2.245,56.396c-0.281,1.683-9.54,57.518-9.54,57.518s8.137,4.489,12.065,5.331s9.259,1.122,9.259,1.122
				s12.907-52.468,13.468-55.554c0.561-3.086-6.453-69.583-6.453-69.583L541.111,345.724z"/>
			<g>
				<path style="fill:#FFFFFF;stroke:#263238;stroke-width:1.1092;stroke-miterlimit:10;" d="M541.502,452.789
					c0,0-11.452,15.762-10.098,17.363c1.355,1.601,11.329,11.083,13.792,12.191c2.463,1.108,24.998,0,24.998,0
					s0.369-0.985,0.369-1.97s-0.123-4.802-1.478-5.911c-1.355-1.108-11.575-5.911-11.945-6.65c-0.369-0.739-0.862-6.773-0.862-6.773
					L541.502,452.789z"/>
				<path style="fill:#FFFFFF;stroke:#263238;stroke-width:1.1092;stroke-miterlimit:10;" d="M570.194,482.343
					c0,0,0.37-0.985,0.37-1.97c0-0.117-0.002-0.277-0.007-0.465l-15.632,0.588c0,0-4.802,0.739-7.388-1.355
					c-2.164-1.752-11.658-10.402-14.696-13.176c-1.152,2.092-1.825,3.727-1.435,4.187c1.355,1.601,11.329,11.083,13.792,12.191
					C547.659,483.451,570.194,482.343,570.194,482.343z"/>
			</g>
			<path style="fill:#263238;stroke:#263238;stroke-width:1.1092;stroke-miterlimit:10;" d="M532.974,320.191
				c0,0,1.684,16.273,3.087,18.799c1.403,2.525,3.647,6.453,3.647,6.453l21.324,59.763l-21.885,48.259
				c0,0,15.993,10.381,19.36,11.504c3.367,1.122,4.489,1.122,4.489,1.122s25.813-60.324,25.813-64.533
				c0-4.209-17.957-64.533-17.957-64.533l1.122-20.763L532.974,320.191z"/>
			
				<polyline style="fill:none;stroke:#696969;stroke-width:1.1092;stroke-linecap:round;stroke-linejoin:round;stroke-miterlimit:10;" points="
				554.279,325.24 566.08,329.96 556.302,322.205 563.045,325.24 			"/>
			<polyline style="fill:none;stroke:#696969;stroke-width:1.1092;stroke-miterlimit:10;" points="547.499,366.239 561.032,405.206 
				541.392,450.379 			"/>
			
				<line style="fill:none;stroke:#696969;stroke-width:1.1092;stroke-miterlimit:10;" x1="544.759" y1="358.349" x2="546.154" y2="362.366"/>
		</g>
		<g>
			<g>
				<path style="fill:#FFFFFF;stroke:#263238;stroke-width:1.1092;stroke-miterlimit:10;" d="M587.304,290.005
					c0,0,6.636-6.238,7.963-7.034c1.327-0.796,6.769-2.389,7.167-4.247c0.398-1.858-0.133-11.016-0.664-10.617
					c-0.531,0.398-7.565,10.352-7.565,10.352l-9.158,7.167L587.304,290.005z"/>
				
					<line style="fill:#FFFFFF;stroke:#263238;stroke-width:1.1092;stroke-miterlimit:10;" x1="596.727" y1="275.539" x2="595.931" y2="281.644"/>
				
					<line style="fill:#FFFFFF;stroke:#263238;stroke-width:1.1092;stroke-miterlimit:10;" x1="598.851" y1="272.353" x2="599.116" y2="279.786"/>
				<path style="fill:#FFFFFF;stroke:#263238;stroke-width:1.1092;stroke-miterlimit:10;" d="M600.974,269.832
					c0,0-0.133,7.83,0,8.627"/>
				<path style="fill:#FFFFFF;stroke:#263238;stroke-width:1.1092;stroke-miterlimit:10;" d="M602.832,276.6
					c0,0,2.256-2.787,1.725-4.645c-0.531-1.858-2.124-2.389-2.124-2.389L602.832,276.6z"/>
			</g>
			<path style="fill:#92E3A9;stroke:#263238;stroke-width:1.1092;stroke-miterlimit:10;" d="M586.508,282.838
				c0.398,0.265,3.583,5.176,3.583,5.176l-3.982,5.309c0,0,1.991,3.716,0.796,4.645c-1.195,0.929-11.148,6.105-11.148,6.105
				l-3.318-13.405c0,0,7.432-4.645,7.83-4.513c0.398,0.133,1.062,0.796,1.062,0.796L586.508,282.838z"/>
			<polygon style="fill:#263238;stroke:#263238;stroke-width:1.1092;stroke-miterlimit:10;" points="590.738,281.044 
				592.123,282.002 606.743,261.076 605.358,260.118 			"/>
		</g>
		<path style="fill:#92E3A9;stroke:#263238;stroke-width:1.1092;stroke-miterlimit:10;" d="M549.137,242.526
			c-0.814,0.407-12.411,14.445-16.683,19.939c-4.273,5.493-3.866,14.445-3.662,19.328c0.204,4.883-2.034,41.098-2.034,41.098
			s17.701-1.424,28.28-2.441s25.635-2.034,25.635-2.034s-4.273-18.718-6.307-27.06c-2.035-8.342-5.29-20.345-7.528-26.042
			c-2.238-5.697-5.493-10.987-5.493-10.987L549.137,242.526z"/>
		<g>
			<path style="fill:#FFFFFF;stroke:#263238;stroke-width:1.1092;stroke-miterlimit:10;" d="M570.703,243.136l-6.51,7.324
				l-9.969-12.614l5.9-6.917c0,0,3.459-3.662,5.493-3.255C567.651,228.081,570.703,243.136,570.703,243.136z"/>
			<polygon style="fill:#263238;stroke:#263238;stroke-width:1.1092;stroke-miterlimit:10;" points="563.786,235.608 
				567.765,246.68 570.703,243.136 			"/>
			<path style="fill:#263238;stroke:#263238;stroke-width:1.1092;stroke-miterlimit:10;" d="M562.972,230.725
				c0,0-2.441,3.866-4.476,3.052s-7.528-6.714-9.969-14.038c-2.441-7.324,6.51-8.545,7.935-11.393
				c1.424-2.848,2.645-3.255,4.68-13.225c2.035-9.969,24.821-6.104,28.28-0.814c3.459,5.29,2.848,15.87,12.411,12.411
				c9.562-3.459,19.938-7.121,22.177,1.424c2.238,8.545-5.086,18.921-2.442,22.583s11.19,1.017,10.58,4.476
				c-0.61,3.459-5.086,5.697-3.662,6.51c1.424,0.814,9.359-3.255,7.121,0.407c-2.238,3.662-6.917,7.528-7.528,5.9
				c-0.61-1.628,0-3.662-2.238-2.441c-2.238,1.221-8.952,6.104-11.8,3.459c-2.848-2.645,0.814-12.207-3.866-13.225
				c-4.68-1.017-16.073,2.238-19.939,2.441c-3.866,0.203-4.273-1.017-11.393-4.476C571.72,230.319,562.972,230.725,562.972,230.725z
				"/>
			<g>
				<g>
					<path style="fill:#FFFFFF;stroke:#263238;stroke-width:1.1092;stroke-miterlimit:10;" d="M564.599,225.029
						c0,0,12.004,0.61,19.735-1.424c7.731-2.035,10.376-3.255,10.376-3.255s0.203,7.935-1.831,10.173
						c-2.034,2.238-4.679,4.273-4.679,5.9c0,1.628,2.034,4.272,0.814,5.697c-1.221,1.424-4.069,1.424-4.883,1.424
						c-0.814,0-7.324,6.104-9.156,6.104c-1.831,0-10.986-12.207-11.19-14.038c-0.204-1.831,0-6.511,0-6.511"/>
					<path style="fill:none;stroke:#263238;stroke-width:1.1092;stroke-miterlimit:10;" d="M585.962,232.15l-2.238,2.645
						c0,0-2.238-0.204-3.052-2.645"/>
					<path style="fill:none;stroke:#263238;stroke-width:1.1092;stroke-miterlimit:10;" d="M578.434,238.253
						c0,0-0.203,3.255,2.441,3.662"/>
					<path style="fill:none;stroke:#263238;stroke-width:1.1092;stroke-miterlimit:10;" d="M583.521,228.691
						c0,0,3.662-1.221,5.29,1.831"/>
				</g>
				<path style="fill:#FFFFFF;stroke:#263238;stroke-width:1.1092;stroke-miterlimit:10;" d="M567.651,228.081
					c0,0-3.052-8.952-5.9-5.697c-2.849,3.255-1.221,8.952,1.017,10.173c2.238,1.221,4.273,0,4.273,0"/>
			</g>
		</g>
		<path style="fill:#92E3A9;stroke:#263238;stroke-width:1.1092;stroke-miterlimit:10;" d="M555.037,234.591
			c0,0,13.428,13.225,13.021,15.056c-0.407,1.831-2.645,3.052-2.645,3.052s0.61,3.662-0.407,4.476
			c-1.017,0.814-2.238,1.017-2.238,1.017s-12.818-13.225-14.445-15.259c-1.628-2.035-0.407-3.052,0.61-3.459
			c1.017-0.407,2.238-0.61,2.238-0.61S552.595,233.981,555.037,234.591z"/>
		<g>
			<path style="fill:#92E3A9;stroke:#263238;stroke-width:1.1092;stroke-miterlimit:10;" d="M535.57,264.146
				c0,0-1.262,7.155-1.262,14.309c0,7.155,2.946,42.297,4.419,44.191c1.473,1.894,7.365,3.577,9.89,1.894
				c2.525-1.684,24.41-15.783,24.621-18.097s-3.367-10.732-4.84-11.363c-1.473-0.631-2.736-0.421-4.84,1.473
				c-2.104,1.894-7.576,5.05-7.576,5.05s-1.473-26.936-3.156-33.459c-1.684-6.523-2.525-7.786-3.577-8.207"/>
			<g>
				<path style="fill:#FFFFFF;stroke:#263238;stroke-width:1.1092;stroke-miterlimit:10;" d="M574.365,291.355
					c0,0,6.027-14.373,6.448-15.425c0.421-1.052,1.894-2.736,3.156-2.946c1.263-0.21,10.943-2.315,11.784-2.525
					c0.842-0.21,1.473,0.842-0.842,2.315c-2.315,1.473-7.996,2.104-7.996,2.104l-0.842,6.313c0,0,5.682-4.419,5.682-2.104
					c0,2.315-4.209,3.788-4.84,3.998c-0.631,0.21-2.315,2.946-2.946,3.367c-0.631,0.421-2.946,1.052-2.946,1.052
					s-0.421,2.525-1.263,3.367c-0.842,0.842-4.63,3.577-4.63,3.577L574.365,291.355z"/>
				<path style="fill:#FFFFFF;stroke:#263238;stroke-width:1.1092;stroke-miterlimit:10;" d="M580.813,275.93
					c0,0,2.436-3.012,2.796-2.979c0.36,0.033,4.637,3.65,4.932,3.946s-1.578,3.354-1.874,3.848
					c-0.296,0.493-0.395,0.888-1.184,0.592c-0.789-0.296-1.48-0.888-1.48-0.888"/>
				<path style="fill:#FFFFFF;stroke:#263238;stroke-width:1.1092;stroke-miterlimit:10;" d="M580.156,278.377
					c0,0,2.664-2.96,3.058-2.96s3.749,2.664,3.749,3.157c0,0.493-0.592,3.453-1.085,3.551c-0.493,0.099-2.072-0.197-2.072-0.197"/>
				<path style="fill:#FFFFFF;stroke:#263238;stroke-width:1.1092;stroke-miterlimit:10;" d="M580.058,281.237
					c0,0,1.578-1.677,2.368-2.072s2.561,1.288,3.648,2.025c1.087,0.737,2.37,1.132,1.778,1.822c-0.592,0.69-2.861-0.296-3.354-0.296
					c-0.493,0-1.578-0.493-1.578-0.493l-1.282,3.848"/>
			</g>
			<path style="fill:#92E3A9;stroke:#263238;stroke-width:1.1092;stroke-miterlimit:10;" d="M567.345,295.711l7.365-5.892
				l3.367,6.313l-6.313,6.523C571.764,302.655,567.345,301.813,567.345,295.711z"/>
		</g>
	</g>
</g>
<g id="Character_1">
	<g>
		<g>
			<path style="fill:#FFFFFF;stroke:#263238;stroke-width:1.1092;stroke-miterlimit:10;" d="M132.98,469.046
				c0,0-5.022-1.501-8.333-4.373c-3.311-2.871-13.823-10.654-16.87-12.678c-3.047-2.024-2.668,7.244-1.639,12.035
				c1.029,4.791,3.19,9.043,5.11,11.325c1.92,2.283,14.455,7.018,15.852,7.326c1.397,0.308,7.008,0.418,8.141-0.121
				C136.374,482.022,134.025,472.996,132.98,469.046z"/>
			<path style="fill:#FFFFFF;stroke:#263238;stroke-width:1.1092;stroke-miterlimit:10;" d="M111.886,471.44
				c-2.931-3.755-4.946-15.289-5.088-19.706c-1.965,0.462-1.562,8.098-0.66,12.297c1.029,4.791,3.19,9.043,5.11,11.325
				c1.92,2.283,14.455,7.018,15.852,7.326c0.914,0.201,3.625,0.317,5.712,0.223C126.04,480.506,114.836,475.219,111.886,471.44z"/>
		</g>
		<path style="fill:#92E3A9;stroke:#263238;stroke-width:1.1092;stroke-miterlimit:10;" d="M269.702,400.533
			c0,0-3.465,6.402-5.207,10.124c-1.743,3.723-3.256,6.406-3.256,6.406s-1.673-3.259-2.937-2.658
			c-1.264,0.601-2.761,0.914-2.761,0.914s-1.58-5.66-4.026-8.63c-2.446-2.97-4.469-1.54-6.707-3.52
			c-3.172-2.805-4.446-3.637-6.567-5.34c-2.608-2.095-6.602,6.758-6.667,10.096s17.054,24.334,21.325,30.053
			c4.271,5.718,8.582,9.351,11.364,5.857c2.781-3.493,4.099-6.807,6.197-18.035C272.557,414.572,277.691,397.559,269.702,400.533z"
			/>
		<g>
			<path style="fill:#FFFFFF;stroke:#263238;stroke-width:1.1092;stroke-miterlimit:10;" d="M238.241,397.83l-7.775-5.816
				c-0.834-1.654-2.527-5.083-3.45-7.473c-1.257-3.253-1.804-5.319-4.695-7.577c-2.891-2.258-9.734-5.034-10.597-5.931
				c-0.863-0.897-1.225,2.618,0.357,4.263c1.582,1.645,2.603,1.959,2.603,1.959s-11.273-1.395-11.29-0.515
				c-0.017,0.88,9.579,12.956,13.045,15.812c1.449,1.194,4.693,2.324,6.533,3.65c1.084,0.781,1.884,1.562,2.493,2.214
				c-0.428,0.242-0.567,0.232-0.611,0.201c0.392,0.562,6.368,9.079,8.192,8.711C234.932,406.948,240.994,406.441,238.241,397.83z"/>
			<g>
				
					<rect x="210.175" y="361.334" transform="matrix(0.8265 -0.5629 0.5629 0.8265 -174.6232 183.8296)" style="fill:#263238;stroke:#263238;stroke-width:1.1092;stroke-miterlimit:10;" width="1.467" height="27.732"/>
				<g>
					<path style="fill:#FFFFFF;stroke:#263238;stroke-width:1.1092;stroke-miterlimit:10;" d="M206.889,370.645
						c0,0-5.997,6.487-5.275,7.088c0.722,0.601,3.026,2.848,3.619,2.566c0.593-0.282,3.777-5.503,3.935-6.087
						C209.325,373.628,206.889,370.645,206.889,370.645z"/>
					<path style="fill:#FFFFFF;stroke:#263238;stroke-width:1.1092;stroke-miterlimit:10;" d="M209.886,374.96
						c0,0-4.533,6.662-4.105,7.257c0.429,0.595,6.167,7.312,6.892,7.767c0.725,0.454,4.763-3.429,4.763-3.429L209.886,374.96z"/>
					<path style="fill:none;stroke:#263238;stroke-width:1.1092;stroke-miterlimit:10;" d="M212.305,378.823
						c0,0-4.24,6.668-3.8,6.676"/>
					
						<line style="fill:none;stroke:#263238;stroke-width:1.1092;stroke-miterlimit:10;" x1="215.15" y1="383.428" x2="211.244" y2="388.048"/>
				</g>
				<path style="fill:#FFFFFF;stroke:#263238;stroke-width:1.1092;stroke-miterlimit:10;" d="M214.684,377.255l3.636,1.686
					c0,0-0.909,8.934,4.022,11.966"/>
			</g>
		</g>
		<g>
			<path style="fill:#FFFFFF;stroke:#263238;stroke-width:1.1092;stroke-miterlimit:10;" d="M224.854,398.617
				c-0.013-0.019-0.021-0.03-0.021-0.03S224.835,398.604,224.854,398.617z"/>
		</g>
		<path style="fill:#263238;stroke:#263238;stroke-width:1.1092;stroke-miterlimit:10;" d="M266.426,447.25
			c0,0-35.374-42.226-39.214-46.791c-3.839-4.565-12.503-6.419-17.585-4.835c-5.082,1.584-11.253,15.776-12.491,21.645
			c-1.237,5.869-11.275,31.21-13.024,34.543c-1.749,3.333-4.345,6.931-4.373,8.333c-0.027,1.402-0.049,2.525-0.049,2.525
			l-1.76,3.894c0,0,8.119,1.001,11.496,0.506c3.377-0.495,8.223-4.329,9.103-6.276c0.88-1.947,3.364-6.757,6.347-8.856
			c4.268-3.003,11.677-23.064,11.677-23.064l13.994,30.582c0,0,27.706,3.91,33.894,3.189
			C270.629,461.925,266.426,447.25,266.426,447.25z"/>
		<path style="fill:#263238;stroke:#263238;stroke-width:1.1092;stroke-miterlimit:10;" d="M265.089,443.857
			c0,0-4.318,5.528-4.34,6.65c-0.022,1.122-0.022,1.122-0.022,1.122l-23.619,2.344c0,0-24.406-0.478-28.069,0.292
			c-3.663,0.77-56.698,14.886-60.076,15.381c-3.377,0.495-5.005-2.349-6.408-2.376s-2.783-1.177-4.747-1.216
			c-1.964-0.038-3.702,2.734-4.829,2.992c-1.128,0.259-1.414,0.534-2.255,0.517c-0.842-0.017-0.242-1.969-0.842-0.017
			c-0.6,1.953-2.112,7.536-0.759,10.088c1.353,2.552,3.57,3.999,3.57,3.999s45.461,0.048,53.035,0.197
			c7.574,0.148,30.907-1.915,33.717-2.14c2.811-0.226,43.454,2.254,49.906,2.38c6.452,0.126,27.783-0.017,31.473-2.19
			c3.691-2.173,8.421-14.428,7.673-19.213c-0.748-4.785-39.769-18.459-39.769-18.459L265.089,443.857z"/>
		<path style="fill:#92E3A9;stroke:#263238;stroke-width:1.1092;stroke-miterlimit:10;" d="M263.483,439.896
			c0,0-0.583,1.111-0.341,3.08c0.242,1.969,44.169,23.035,45.588,22.221c1.419-0.814,2.42-8.933,2.42-8.933l-47.618-18.893
			L263.483,439.896z"/>
		<path style="fill:#92E3A9;stroke:#263238;stroke-width:1.1092;stroke-miterlimit:10;" d="M282.199,372.631
			c0,0-8.074,11.067-11.05,19.708c-2.975,8.641-7.766,38.294-9.52,41.908c-1.755,3.614-1.798,5.858,0.715,6.468
			c2.514,0.611,26.441,11.182,34.516,14.427c8.075,3.245,15.313,6.193,16.534,1.166c1.221-5.027,1.281-8.113,1.149-15.693
			c-0.132-7.58-0.276-43.222-0.914-53.618c-0.638-10.396-6.2-27.342-13.504-26.924C292.82,360.491,282.199,372.631,282.199,372.631z
			"/>
		<g>
			<path style="fill:#FFFFFF;stroke:#263238;stroke-width:1.1092;stroke-miterlimit:10;" d="M297.492,333.674
				c-0.863-6.107-3.785-11.088-8.769-14.204c2.905-3.155,6.406-1.006,6.406-1.006s0.674-2.385-1.267-3.217
				c-1.862-0.798-3.468,0.464-3.468,0.464s0.328-3.186,2.487-4.74c2.159-1.554,6.372,0.657,6.372,0.657s-0.902-8.265-6.252-6.773
				c-5.35,1.492-4.641,6.028-4.641,6.028s-0.991-3.744-4.177-4.072c-3.186-0.328-5.632,2.284-5.632,2.284s2.706-2.341,5.553,1.705
				c2.187,3.109,1.556,5.841,1.146,6.944c-0.827-0.322-1.686-0.614-2.596-0.854c-7.518-1.979-16.098,0.162-19.759,3.822
				c-2.384,0.65-5.632,1.838-8.059,3.88c-4.023,3.384-0.257,8.067,0.293,8.71c0.3,1.672,0.301,1.678,0.301,1.678
				s0.913,7.733,1.664,10.142c0.751,2.409,2.065,3.233,2.039,4.563c-0.026,1.33-2.247,6.075-0.683,7.702
				c1.564,1.627,2.904,1.121,2.904,1.121s6.133,12.89,8.813,11.878c2.68-1.012,7.295-5.71,7.295-5.71l6.044,3.843l11.148-12.285
				l-2.023-5.36C292.632,350.871,298.66,341.944,297.492,333.674z"/>
			<path style="fill:#263238;stroke:#263238;stroke-width:1.1092;stroke-miterlimit:10;" d="M260.101,333.092
				c3.24-1.542,11.532-3.443,10.107-0.949c-1.424,2.494-1.739,6.845,0.086,7.339c1.825,0.494,5.672,3.092,7.029,4.035
				c1.357,0.944,2.975,0.288,3.002-1.088c0.027-1.375,1.456-4.099,4.409-2.665c2.953,1.433,3.128,4.188,2.378,7.384
				c-0.75,3.195-3.069,4.526-3.069,4.526s3.518,2.828,8.939,0.119l-0.348-0.922c0,0,6.028-8.927,4.859-17.197
				c-0.863-6.107-3.785-11.088-8.769-14.204c2.905-3.155,6.406-1.006,6.406-1.006s0.674-2.385-1.267-3.217
				c-1.862-0.798-3.468,0.464-3.468,0.464s0.328-3.186,2.487-4.74c2.159-1.554,6.372,0.657,6.372,0.657s-0.902-8.265-6.252-6.773
				c-5.35,1.492-4.641,6.028-4.641,6.028s-0.991-3.744-4.177-4.072c-3.186-0.328-5.632,2.284-5.632,2.284s2.706-2.341,5.553,1.705
				c2.187,3.109,1.556,5.841,1.146,6.944c-0.827-0.322-1.686-0.614-2.596-0.854c-7.518-1.979-16.098,0.162-19.759,3.822
				c-2.384,0.65-5.632,1.838-8.059,3.88c-4.023,3.384-0.257,8.067,0.293,8.71C255.131,333.301,256.86,334.633,260.101,333.092z"/>
			<path style="fill:none;stroke:#263238;stroke-width:1.1092;stroke-miterlimit:10;" d="M262.618,345.064l-0.058,2.98
				c0,0,3.191,0.98,5.757-1.263"/>
			<path style="fill:none;stroke:#263238;stroke-width:1.1092;stroke-miterlimit:10;" d="M259.233,342.246
				c0,0,2.589-3.389,6.674-1.245"/>
			<path style="fill:none;stroke:#263238;stroke-width:1.1092;stroke-miterlimit:10;" d="M265.099,358.87
				c0,0,3.901-0.153,6.283-4.692"/>
			<path style="fill:#263238;stroke:#263238;stroke-width:1.1092;stroke-miterlimit:10;" d="M272.105,364.052
				c-2.314,1.101-5.236-1.937-6.606-2.193c-1.109-0.207-0.915,2.011-0.8,2.866c1.881,3.131,4.116,6.17,5.47,5.659
				c2.68-1.012,7.295-5.71,7.295-5.71l0.211,0.134c0.484-0.893,1.109-2.256,1.131-3.377
				C278.842,359.598,274.42,362.95,272.105,364.052z"/>
		</g>
		<path style="fill:#FFFFFF;stroke:#263238;stroke-width:1.1092;stroke-miterlimit:10;" d="M306.428,353.461
			c0,0-8.366-2.689-13.24,2.547c-4.873,5.237-18.085,20.693-15.28,20.748c2.805,0.055,7.728-7.706,13.388-10.121
			s9.026-2.349,10.913,1.617c1.887,3.966,8.405,29.35,11.018,24.911c2.613-4.439,7.277-13.328,4.917-21.793
			C315.785,362.905,309.201,355.199,306.428,353.461z"/>
		<g>
			<path style="fill:#92E3A9;stroke:#263238;stroke-width:1.1092;stroke-miterlimit:10;" d="M285.071,383.632
				c0,0-6.974,12.211-7.667,18.933c-0.693,6.722-2.925,34.741-2.925,34.741s-2.772-1.738-4.208-0.082
				c-1.436,1.656-2.349,5.286-2.349,5.286s-3.905-1.199-4.78,0.468c-0.874,1.667-1.738,2.772-1.738,2.772l-24.295,8.224
				c0,0,38.404,2.155,41.495,1.935c3.091-0.22,5.093-2.145,5.093-2.145s2.486,2.013,6.727,0.412c4.241-1.601,5.682-3.537,6.87-6.881
				c1.188-3.344,6.759-44.207,6.759-44.207"/>
			<path style="fill:#FFFFFF;stroke:#263238;stroke-width:1.1092;stroke-miterlimit:10;" d="M237.109,453.973
				c0,0,11.671,0.655,22.664,1.206c-1.594-2.592-0.849-6.327-0.01-8.874L237.109,453.973z"/>
		</g>
	</g>
</g>
<g id="Floor">
	
		<line style="fill:none;stroke:#263238;stroke-width:1.1092;stroke-miterlimit:10;" x1="99" y1="482.904" x2="619.294" y2="482.904"/>
</g>
</svg>
